<svg width="14" height="17" viewBox="0 0 14 17" fill="none" xmlns="http://www.w3.org/2000/svg">
<path d="M9.82136 16.9106C9.60259 16.9106 9.37231 16.8298 9.18233 16.6854C6.25778 13.9725 3.33322 11.2537 0.414428 8.54648C0.195662 8.37331 0.0402232 8.10778 0.00568124 7.82494C-0.0231037 7.55364 0.0574942 7.27657 0.247475 7.05145C2.13001 4.81756 4.01831 2.58368 5.90084 0.349792C6.20596 -0.05427 6.9774 -0.140856 7.37463 0.263206L11.4563 3.65156C11.8881 4.07871 11.963 4.73675 11.6463 5.15813C10.8403 6.09902 10.0344 7.04568 9.22838 7.99234C10.4949 9.23338 11.7557 10.4802 13.0165 11.7212C13.2007 11.906 13.3159 12.2061 13.3159 12.5005C13.3159 12.743 13.2353 12.9623 13.0856 13.1124C12.222 14.2784 11.3527 15.4502 10.4892 16.6162C10.2819 16.8298 10.0574 16.9221 9.80984 16.9221" fill="#1A585B"/>
</svg>
