<?xml version="1.0" encoding="UTF-8"?><svg id="Vector" xmlns="http://www.w3.org/2000/svg" width="32" height="32" viewBox="0 0 32 32"><path d="M25.85,17.12c0,5.88-5.14,10.57-11.14,9.79-4.53-.58-8.15-4.38-8.52-8.95-.09-1.04-.01-2.07.22-3.07.23-.99,1.3-1.55,2.25-1.13.7.31,1.08,1.11.91,1.86-.43,1.92-.02,3.98,1.23,5.63.79,1.04,1.93,1.8,3.19,2.18,4.49,1.35,8.62-2,8.62-6.31,0-2.93-1.9-5.4-4.52-6.28l.54,1.5c.12.34-.16.68-.52.62l-6.56-1.15c-.7-.12-1.01-.97-.55-1.52l4.27-5.13c.23-.28.67-.2.79.14l.72,1.98c5.1.43,9.07,4.68,9.07,9.84Z" fill="#fff"/></svg>