<svg width="43" height="43" viewBox="0 0 43 43" fill="none" xmlns="http://www.w3.org/2000/svg">
<path d="M25.0689 15.5401C26.1013 12.8615 29.4069 11.8851 30.7835 10.2099C33.7631 6.57278 29.7873 3.14174 26.7805 1.77112C18.4214 -2.02722 13.4585 0.884243 11.7197 4.86174C9.32877 10.3353 15.2607 15.0384 16.909 16.203C18.1226 15.1817 19.6712 14.5636 21.3467 14.5636C22.7233 14.5636 23.9912 14.922 25.0689 15.5401Z" fill="#4FAFB3"/>
<path d="M17.9143 27.4994C16.8638 30.1422 13.5853 31.1186 12.2178 32.7849C9.23823 36.4219 13.214 39.853 16.2298 41.2236C24.5799 45.0219 29.5518 42.1105 31.2907 38.133C33.6997 32.6236 27.6772 27.9026 26.0742 26.7649C24.8244 27.7951 23.1852 28.4222 21.3648 28.4222C20.115 28.4222 18.9377 28.0817 17.9234 27.4905L17.9143 27.4994Z" fill="#4FAFB3"/>
<path d="M38.1373 11.7149C32.6582 9.32298 27.9579 15.2713 26.7896 16.9107C27.9126 18.138 28.5828 19.7505 28.5828 21.4974C28.5828 22.8142 28.2024 24.0505 27.5322 25.1076C30.1405 26.1826 31.1186 29.4255 32.7759 30.7871C36.4076 33.7703 39.849 29.7928 41.2165 26.7828C45.0112 18.4246 42.1041 13.4617 38.1283 11.7238L38.1373 11.7149Z" fill="#4FAFB3"/>
<path d="M15.4509 17.8872C12.8427 16.8122 11.8646 13.5692 10.2163 12.2165C6.58467 9.23341 3.14323 13.2109 1.7757 16.2209C-2.028 24.579 0.879114 29.5419 4.86395 31.2799C10.325 33.6628 15.0162 27.7682 16.2026 26.102C15.0977 24.8657 14.4185 23.2442 14.4185 21.4884C14.4185 20.1715 14.7989 18.9353 15.46 17.8782L15.4509 17.8872Z" fill="#4FAFB3"/>
</svg>
