<svg width="42" height="38" viewBox="0 0 42 38" fill="none" xmlns="http://www.w3.org/2000/svg">
<g clip-path="url(#clip0_2_96)">
<path d="M14.515 11.03C11.465 11.03 8.97501 8.55 8.97501 5.5C8.97501 2.45 11.465 0 14.515 0C17.565 0 20.005 2.47 20.005 5.49C20.005 8.51 17.545 11.02 14.515 11.02V11.03Z" fill="white"/>
<path d="M10.815 38C10.665 38 10.495 37.94 10.365 37.84C8.30503 35.93 6.24503 34.02 4.17503 32.11C4.01503 31.99 3.91503 31.8 3.88503 31.6C3.86503 31.41 3.92503 31.21 4.05503 31.05C5.38503 29.48 6.71503 27.91 8.04503 26.33C8.25503 26.04 8.80503 25.99 9.08503 26.27C10.045 27.07 11.005 27.86 11.965 28.66C12.265 28.96 12.325 29.43 12.095 29.72C11.525 30.38 10.965 31.05 10.395 31.71C11.285 32.58 12.175 33.46 13.065 34.33C13.195 34.46 13.275 34.67 13.275 34.88C13.275 35.05 13.215 35.21 13.115 35.31C12.505 36.13 11.895 36.95 11.285 37.77C11.145 37.92 10.985 37.98 10.805 37.98L10.815 38Z" fill="white"/>
<path d="M19.585 23.35H9.52502C9.08502 23.35 8.70502 22.97 8.70502 22.53V17.75C7.09502 19.35 5.48502 20.95 3.87502 22.54C3.65502 22.82 3.13502 22.92 2.83502 22.7C2.24502 22.1 1.66502 21.5 1.08502 20.9C0.95502 20.78 0.89502 20.62 0.89502 20.45C0.89502 20.24 0.99502 20.02 1.17502 19.84C3.69502 17.31 6.22502 14.79 8.74502 12.26C8.78502 12.17 8.87502 12.09 8.97502 12.09H20.125C20.195 12.09 20.265 12.12 20.325 12.17C22.865 14.72 25.395 17.28 27.935 19.83C28.265 20.15 28.325 20.57 28.095 20.87C27.495 21.47 26.905 22.07 26.305 22.67C26.165 22.78 26.025 22.83 25.875 22.83C25.655 22.83 25.425 22.72 25.235 22.54C23.625 20.94 22.015 19.34 20.405 17.75V22.53C20.405 23 20.045 23.35 19.585 23.35Z" fill="white"/>
<path d="M18.305 37.97C18.105 37.97 17.925 37.86 17.845 37.7C17.225 36.9 16.595 36.1 15.975 35.3C15.805 34.98 15.815 34.54 16.045 34.31C16.935 33.43 17.825 32.55 18.725 31.67C18.175 31.01 17.625 30.35 17.075 29.69C16.825 29.36 16.885 28.92 17.205 28.67C18.165 27.86 19.135 27.04 20.095 26.22C20.405 25.98 20.845 26.02 21.105 26.28C22.435 27.87 23.775 29.46 25.105 31.06C25.325 31.35 25.285 31.78 24.995 32.06C22.925 33.96 20.855 35.87 18.775 37.78C18.655 37.9 18.485 37.97 18.305 37.97Z" fill="white"/>
<path d="M38.865 12.97V3.61C38.865 1.62 37.235 0 35.245 0C33.255 0 31.625 1.62 31.625 3.61V12.96C30.225 14.07 29.375 15.77 29.375 17.58C29.375 20.81 32.005 23.45 35.245 23.45C38.485 23.45 41.115 20.82 41.115 17.58C41.115 15.77 40.295 14.07 38.865 12.96V12.97ZM35.245 21.91C32.865 21.91 30.915 19.97 30.915 17.58C30.915 16.14 31.635 14.8 32.835 13.99C33.045 13.85 33.175 13.61 33.175 13.35V3.61C33.175 2.46 34.105 1.53 35.245 1.53C36.385 1.53 37.315 2.46 37.315 3.61V13.35C37.315 13.61 37.445 13.85 37.655 13.99C38.855 14.8 39.565 16.14 39.565 17.58C39.565 19.97 37.625 21.91 35.235 21.91H35.245Z" fill="white"/>
<path d="M36.015 15.41V4.59C36.015 4.16 35.665 3.82 35.245 3.82C34.825 3.82 34.475 4.16 34.475 4.59V15.4C33.505 15.73 32.815 16.64 32.815 17.71C32.815 19.05 33.905 20.14 35.245 20.14C36.585 20.14 37.675 19.05 37.675 17.71C37.675 16.63 36.975 15.72 36.005 15.4L36.015 15.41Z" fill="white"/>
</g>
<defs>
<clipPath id="clip0_2_96">
<rect width="40.21" height="38" fill="white" transform="translate(0.89502)"/>
</clipPath>
</defs>
</svg>
