<svg width="44" height="50" viewBox="0 0 44 50" fill="none" xmlns="http://www.w3.org/2000/svg">
<g clip-path="url(#clip0_2_75)">
<path d="M30.67 22.01C28.35 19.06 27.48 16.47 27.37 12.13C27.35 11.38 26.73 10.79 25.98 10.79H18.09C17.34 10.79 16.73 11.37 16.7 12.11C16.52 16.17 16.15 18.33 13.4 21.96C11.7 23.94 10.72 26.53 10.72 29.08C10.72 35.17 15.79 40.13 22.02 40.13C28.25 40.13 33.28 35.17 33.28 29.08C33.28 26.5 32.32 23.91 30.67 22V22.01ZM25.04 22.75C25.04 22.96 24.86 23.14 24.64 23.14H21.01V26.84H24.64C24.86 26.84 25.04 27.02 25.04 27.23V28.43C25.04 28.65 24.86 28.82 24.64 28.82H21.01V34.11C21.01 34.32 20.83 34.5 20.61 34.5H19.36C19.14 34.5 18.96 34.32 18.96 34.11V21.54C18.96 21.33 19.14 21.15 19.36 21.15H24.63C24.85 21.15 25.03 21.33 25.03 21.54V22.74L25.04 22.75Z" fill="white"/>
<path d="M17.7 6.68H26.48C26.92 6.68 27.28 6.33 27.28 5.85C27.28 5.41 26.92 5.06 26.48 5.06H17.7C17.26 5.06 16.9 5.42 16.9 5.89C16.9 6.33 17.26 6.68 17.7 6.68Z" fill="white"/>
<path d="M17.7 9.56H26.48C26.93 9.56 27.28 9.19 27.28 8.73C27.28 8.27 26.91 7.9 26.48 7.9H17.7C17.27 7.9 16.9 8.28 16.9 8.73C16.9 9.18 17.25 9.56 17.7 9.56Z" fill="white"/>
<path d="M17.69 3.82H26.24C26.42 3.82 26.58 3.74 26.69 3.61C26.8 3.48 26.84 3.3 26.81 3.13C26.42 1.32 24.39 0 21.97 0C19.55 0 17.51 1.31 17.12 3.13C17.08 3.3 17.12 3.47 17.24 3.61C17.35 3.74 17.52 3.82 17.69 3.82Z" fill="white"/>
<path d="M8.16 29.12C8.16 29.12 8.16 29.1 8.16 29.08C8.16 28.54 8.21 27.99 8.28 27.45C8.3 27.25 8.33 27.06 8.36 26.86C8.36 26.86 8.34 26.86 8.33 26.86H1.9C1.13 26.86 0.5 27.5 0.5 28.28C0.5 29.06 1.13 29.7 1.9 29.7H8.18C8.18 29.5 8.15 29.31 8.15 29.11L8.16 29.12Z" fill="white"/>
<path d="M42.13 26.87H35.69C35.72 27.07 35.74 27.26 35.77 27.46C35.83 28 35.88 28.54 35.88 29.09C35.88 29.1 35.88 29.11 35.88 29.13C35.88 29.33 35.86 29.52 35.85 29.72H42.13C42.88 29.72 43.5 29.08 43.5 28.3C43.5 27.52 42.89 26.88 42.13 26.88V26.87Z" fill="white"/>
<path d="M11.66 38.1C11.53 37.95 11.39 37.8 11.26 37.65C11.23 37.68 11.2 37.7 11.17 37.73L6.64999 42.2C6.38999 42.43 6.23999 42.74 6.21999 43.09C6.19999 43.47 6.33999 43.86 6.59999 44.15C6.63999 44.19 6.69999 44.24 6.74999 44.26C6.99999 44.47 7.31999 44.59 7.64999 44.59C7.99999 44.59 8.33999 44.46 8.62999 44.2L13.18 39.71C13.18 39.71 13.22 39.64 13.25 39.6C13.1 39.48 12.95 39.34 12.81 39.21C12.4 38.85 12.02 38.48 11.66 38.08V38.1Z" fill="white"/>
<path d="M32.87 37.73C32.87 37.73 32.8 37.69 32.77 37.67C32.65 37.82 32.51 37.96 32.38 38.11C32.01 38.52 31.62 38.9 31.21 39.26C31.06 39.39 30.92 39.52 30.77 39.64C30.79 39.67 30.8 39.7 30.83 39.72L35.4 44.24C35.67 44.47 36.01 44.6 36.36 44.6C36.75 44.6 37.11 44.45 37.39 44.18C37.67 43.91 37.82 43.55 37.82 43.17C37.82 42.81 37.68 42.47 37.43 42.22L32.88 37.73H32.87Z" fill="white"/>
<path d="M22.04 42.69C21.8 42.69 21.58 42.67 21.34 42.65C21.14 42.65 20.94 42.65 20.74 42.62V48.64C20.74 49.38 21.37 49.99 22.15 49.99H22.19C22.96 49.99 23.59 49.39 23.59 48.64V42.59C23.39 42.61 23.19 42.62 22.99 42.63C22.67 42.65 22.36 42.68 22.04 42.68V42.69Z" fill="white"/>
</g>
<defs>
<clipPath id="clip0_2_75">
<rect width="43" height="50" fill="white" transform="translate(0.5)"/>
</clipPath>
</defs>
</svg>
