<svg width="40" height="40" viewBox="0 0 40 40" fill="none" xmlns="http://www.w3.org/2000/svg">
<g clip-path="url(#clip0_2_90)">
<path d="M39.24 35.6V38.49C39.24 38.94 38.87 39.31 38.42 39.31H3.65C1.98 39.31 0.630005 37.96 0.630005 36.29V1.52C0.630005 1.07 1 0.700001 1.45 0.700001H4.34C4.79 0.700001 5.16001 1.07 5.16001 1.52V34.14C5.16001 34.5 5.45 34.78 5.8 34.78H38.43C38.88 34.78 39.25 35.15 39.25 35.6H39.24Z" fill="white"/>
<path d="M12.24 31.55C12 31.55 11.76 31.51 11.53 31.42C10.5 31.03 9.97998 29.87 10.38 28.84L15.86 14.52C16.21 13.59 17.05 12.93 18.04 12.8C19.03 12.67 20 13.09 20.59 13.9L25.99 21.37L35.7 6.36C36.3 5.43 37.54 5.17 38.47 5.77C39.4 6.37 39.66 7.61 39.06 8.54L28.33 25.13C27.84 25.88 27.02 26.34 26.13 26.37C25.23 26.39 24.39 25.97 23.86 25.25L18.75 18.18L14.12 30.27C13.82 31.07 13.06 31.56 12.25 31.56L12.24 31.55Z" fill="white"/>
</g>
<defs>
<clipPath id="clip0_2_90">
<rect width="38.74" height="38.6" fill="white" transform="translate(0.630005 0.700001)"/>
</clipPath>
</defs>
</svg>
