<svg width="50" height="46" viewBox="0 0 50 46" fill="none" xmlns="http://www.w3.org/2000/svg">
<path d="M45.0049 14.3658C45.0049 15.0458 44.7249 15.3358 44.0349 15.3358C43.3449 15.3358 43.0649 15.0558 43.0649 14.3658C43.0649 10.3758 39.845 7.14576 35.865 7.12576C34.585 7.30576 34.495 5.12576 35.775 5.18576C35.795 5.18576 35.8149 5.18576 35.8249 5.18576C40.8949 5.18576 45.0049 9.29576 45.0049 14.3658Z" fill="white"/>
<path d="M35.725 2.61578C35.725 2.61578 35.795 2.61578 35.825 2.61578C42.315 2.61578 47.585 7.87578 47.585 14.3758C47.585 15.1258 47.895 15.4258 48.645 15.4258C49.395 15.4258 49.695 15.1158 49.695 14.3758C49.695 6.71578 43.485 0.505782 35.825 0.505782C35.805 0.505782 35.795 0.505782 35.775 0.505782C34.365 0.435782 34.445 2.77578 35.845 2.61578" fill="white"/>
<path d="M14.275 2.61577C14.275 2.61577 14.205 2.61577 14.175 2.61577C7.67502 2.60577 2.41502 7.87577 2.41502 14.3658C2.41502 15.1158 2.10502 15.4158 1.36502 15.4158C0.625023 15.4158 0.305023 15.1058 0.305023 14.3658C0.305023 6.70577 6.51502 0.495772 14.175 0.495772C14.185 0.495772 14.205 0.495772 14.225 0.495772C15.635 0.425772 15.555 2.76577 14.155 2.60577" fill="white"/>
<path d="M4.99496 14.3658C4.99496 15.0458 5.28496 15.3358 5.96496 15.3358C6.64496 15.3358 6.93496 15.0558 6.93496 14.3658C6.93496 10.3758 10.155 7.14576 14.145 7.12576C15.425 7.30576 15.525 5.12576 14.225 5.18576C14.205 5.18576 14.185 5.18576 14.175 5.18576C9.10496 5.18576 4.99496 9.29576 4.99496 14.3658Z" fill="white"/>
<path d="M42.4251 32.1158C42.3651 32.0158 42.2851 31.9258 42.2151 31.8358C40.1251 29.0558 37.9451 25.5758 36.8851 21.9658C35.4251 16.9758 33.0451 12.3458 29.2451 10.3658C29.3251 10.0358 29.3751 9.68578 29.3751 9.32578C29.3751 6.91578 27.4151 4.95578 25.0051 4.95578C22.5951 4.95578 20.6351 6.91578 20.6351 9.32578C20.6351 9.68578 20.6751 10.0258 20.7551 10.3658C16.9651 12.3458 14.5751 16.9758 13.1151 21.9658C12.0551 25.5758 9.87511 29.0658 7.77511 31.8358C7.70511 31.9158 7.63511 32.0158 7.57511 32.1158C7.30511 32.5258 7.14511 33.0358 7.14511 33.5958C7.14511 34.3858 7.42511 35.1458 7.98511 35.5458C8.25511 35.7458 12.6351 38.1058 24.9251 39.0558C24.9451 39.0558 24.9751 39.0758 24.9951 39.0558C24.9951 39.0558 24.9951 39.0558 25.0051 39.0558C25.0251 39.0758 25.0451 39.0558 25.0751 39.0558C37.3751 38.1058 41.7451 35.7458 42.0151 35.5458C42.5651 35.1358 42.8551 34.3858 42.8551 33.5958C42.8551 33.0458 42.6951 32.5358 42.4151 32.1158H42.4251ZM27.4351 9.66578C26.6951 9.46578 25.9051 9.36578 25.0751 9.35578H24.9251C24.0851 9.35578 23.2951 9.46578 22.5651 9.66578C22.5451 9.55578 22.5451 9.44578 22.5451 9.32578C22.5451 7.95578 23.6451 6.85578 25.0051 6.85578C26.3651 6.85578 27.4751 7.95578 27.4751 9.32578C27.4751 9.43578 27.4651 9.55578 27.4451 9.66578H27.4351Z" fill="white"/>
<path d="M25.0751 40.8158C25.0751 40.8158 25.0151 40.8158 24.9751 40.8158C24.8651 40.8158 24.7751 40.8058 24.7051 40.7958C23.8251 40.7258 22.9751 40.6458 22.1351 40.5658V43.7058C22.1351 44.6958 22.9451 45.5058 23.9351 45.5058H26.0751C27.0651 45.5058 27.8751 44.7058 27.8751 43.7058V40.5658C27.0251 40.6558 26.1651 40.7358 25.2751 40.7958C25.2251 40.7958 25.1551 40.8158 25.0851 40.8158H25.0751Z" fill="white"/>
</svg>
